<svg width="38" height="38" viewBox="0 0 38 38" fill="none" xmlns="http://www.w3.org/2000/svg">
<g clip-path="url(#clip0_1_55)">
<path d="M10.355 7.91667C10.45 9.32583 10.6875 10.7033 11.0675 12.0175L9.1675 13.9175C8.51833 12.0175 8.10667 10.0067 7.96417 7.91667H10.355M25.9667 26.9483C27.3125 27.3283 28.69 27.5658 30.0833 27.6608V30.02C27.9933 29.8775 25.9825 29.4658 24.0667 28.8325L25.9667 26.9483M11.875 4.75H6.33333C5.4625 4.75 4.75 5.4625 4.75 6.33333C4.75 21.2008 16.7992 33.25 31.6667 33.25C32.5375 33.25 33.25 32.5375 33.25 31.6667V26.1408C33.25 25.27 32.5375 24.5575 31.6667 24.5575C29.7033 24.5575 27.7875 24.2408 26.0142 23.655C25.8558 23.5917 25.6817 23.5758 25.5233 23.5758C25.1117 23.5758 24.7158 23.7342 24.3992 24.035L20.9158 27.5183C16.435 25.2225 12.7617 21.565 10.4817 17.0842L13.965 13.6008C14.4083 13.1575 14.535 12.54 14.3608 11.9858C13.775 10.2125 13.4583 8.3125 13.4583 6.33333C13.4583 5.4625 12.7458 4.75 11.875 4.75Z" fill="black"/>
</g>
<defs>
<clipPath id="clip0_1_55">
<rect width="38" height="38" fill="white"/>
</clipPath>
</defs>
</svg>
