<svg width="71" height="118" viewBox="0 0 71 118" fill="none" xmlns="http://www.w3.org/2000/svg">
<path d="M0 82.4399C1.2642 96.4903 12.9238 106.461 30.6738 107.751V118H39.583V107.751C58.973 106.242 71 95.6306 71 79.9366C71 66.5351 62.9109 58.7809 45.7502 54.4149L39.583 52.8387V20.7933C49.167 21.7204 55.6332 26.8113 57.2647 34.4139H69.8212C68.4033 20.9281 56.6667 11.2521 39.583 10.1817V0H30.6738V10.3924C14.1112 12.331 2.74194 22.7993 2.74194 36.993C2.74194 49.2481 10.9934 57.9211 25.4718 61.5791L30.6824 62.9446V96.9201C20.8678 95.4873 14.1112 90.1773 12.4797 82.4399H0V82.4399ZM28.9655 50.1079C20.0563 47.8911 15.2985 43.1543 15.2985 36.4873C15.2985 28.5307 21.312 22.656 30.6738 21.0799V50.5377L28.9655 50.1163V50.1079ZM42.5556 65.8861C53.549 68.6086 58.3751 73.1263 58.3751 80.7963C58.3751 90.0424 51.3195 96.2037 39.583 97.1393V65.1529L42.5556 65.8777V65.8861Z" fill="#367E18"/>
</svg>
