<svg width="38" height="38" viewBox="0 0 38 38" fill="none" xmlns="http://www.w3.org/2000/svg">
<path d="M12.6667 4.75C8.30142 4.75 4.75 8.30142 4.75 12.6667V25.3333C4.75 29.6986 8.30142 33.25 12.6667 33.25H25.3333C29.6986 33.25 33.25 29.6986 33.25 25.3333V12.6667C33.25 8.30142 29.6986 4.75 25.3333 4.75H12.6667ZM12.6667 7.91667H25.3333C27.9522 7.91667 30.0833 10.0478 30.0833 12.6667V25.3333C30.0833 27.9522 27.9522 30.0833 25.3333 30.0833H12.6667C10.0478 30.0833 7.91667 27.9522 7.91667 25.3333V12.6667C7.91667 10.0478 10.0478 7.91667 12.6667 7.91667ZM26.9167 9.5C26.4967 9.5 26.094 9.66682 25.7971 9.96375C25.5001 10.2607 25.3333 10.6634 25.3333 11.0833C25.3333 11.5033 25.5001 11.906 25.7971 12.2029C26.094 12.4999 26.4967 12.6667 26.9167 12.6667C27.3366 12.6667 27.7393 12.4999 28.0363 12.2029C28.3332 11.906 28.5 11.5033 28.5 11.0833C28.5 10.6634 28.3332 10.2607 28.0363 9.96375C27.7393 9.66682 27.3366 9.5 26.9167 9.5ZM19 11.0833C14.6348 11.0833 11.0833 14.6348 11.0833 19C11.0833 23.3653 14.6348 26.9167 19 26.9167C23.3653 26.9167 26.9167 23.3653 26.9167 19C26.9167 14.6348 23.3653 11.0833 19 11.0833ZM19 14.25C21.6188 14.25 23.75 16.3812 23.75 19C23.75 21.6188 21.6188 23.75 19 23.75C16.3812 23.75 14.25 21.6188 14.25 19C14.25 16.3812 16.3812 14.25 19 14.25Z" fill="black"/>
</svg>
