<svg width="36" height="38" viewBox="0 0 36 38" fill="none" xmlns="http://www.w3.org/2000/svg">
<path d="M18 3.16667C9.7335 3.16667 3 10.2743 3 19C3 27.7258 9.7335 34.8333 18 34.8333C26.2665 34.8333 33 27.7258 33 19C33 10.2743 26.2665 3.16667 18 3.16667ZM18 6.33334C24.6452 6.33334 30 11.9856 30 19C30 25.3562 25.598 30.5789 19.8281 31.5059V22.7759H23.3203L23.8682 19.0309H19.8281V16.9837C19.8281 15.4273 20.3085 14.0459 21.6885 14.0459H23.9033V10.7772C23.5133 10.7218 22.6903 10.6009 21.1348 10.6009C17.8858 10.6009 15.9814 12.4122 15.9814 16.5384V19.0309H12.6416V22.7759H15.9814V31.4749C10.3054 30.4647 6 25.2862 6 19C6 11.9856 11.3548 6.33334 18 6.33334Z" fill="black"/>
</svg>
