<svg width="38" height="38" viewBox="0 0 38 38" fill="none" xmlns="http://www.w3.org/2000/svg">
<path d="M19.0186 3.16667C10.3007 3.16667 3.20387 10.2574 3.2007 18.9753C3.19912 21.7619 3.92901 24.4824 5.31285 26.8796L3.16669 34.8333L11.4514 32.8758C13.7614 34.1362 16.362 34.7977 19.0093 34.7993H19.0155C27.7317 34.7993 34.8255 27.707 34.8303 18.9907C34.8334 14.7648 33.1901 10.7916 30.204 7.80225C27.2178 4.8145 23.2492 3.16826 19.0186 3.16667ZM19.0155 6.33334C22.3975 6.33492 25.5758 7.65352 27.965 10.0412C30.3543 12.432 31.6668 15.6088 31.6636 18.9876C31.6604 25.9606 25.9886 31.6327 19.0124 31.6327C16.9018 31.6311 14.8112 31.1011 12.9697 30.0957L11.9029 29.5143L10.7246 29.7926L7.60744 30.5287L8.36818 27.7022L8.71145 26.4343L8.05585 25.2962C6.95068 23.3836 6.36579 21.1967 6.36737 18.9753C6.37054 12.0054 12.0441 6.33334 19.0155 6.33334ZM13.4212 11.6771C13.1568 11.6771 12.7293 11.776 12.3667 12.1719C12.0041 12.5661 10.9813 13.521 10.9813 15.4653C10.9813 17.4097 12.3976 19.2891 12.5956 19.5536C12.7919 19.8164 15.3295 23.9325 19.3464 25.5158C22.684 26.8315 23.3619 26.5719 24.0871 26.5054C24.8123 26.4405 26.4265 25.5513 26.7559 24.6283C27.0852 23.7052 27.086 22.9111 26.9878 22.7481C26.8896 22.5834 26.626 22.4852 26.2302 22.2873C25.8359 22.0894 23.893 21.1353 23.5305 21.0039C23.1679 20.8725 22.9027 20.806 22.6398 21.2018C22.377 21.5977 21.6216 22.4852 21.3905 22.7481C21.1593 23.0125 20.9297 23.048 20.5339 22.8501C20.138 22.6506 18.8653 22.2322 17.3548 20.8864C16.18 19.8398 15.3873 18.5485 15.1561 18.1527C14.9265 17.7584 15.1345 17.5419 15.3324 17.3455C15.5097 17.1682 15.7251 16.884 15.923 16.6528C16.1194 16.4217 16.1875 16.257 16.3189 15.9941C16.4503 15.7313 16.383 15.4994 16.2849 15.3014C16.1867 15.1035 15.4179 13.152 15.0664 12.3698C14.7703 11.7127 14.4576 11.6974 14.1758 11.6864C13.9462 11.6769 13.6841 11.6771 13.4212 11.6771Z" fill="black"/>
</svg>
